<?xml version="1.0" encoding="utf-8"?>
<!-- Generator: Adobe Illustrator 17.1.0, SVG Export Plug-In . SVG Version: 6.00 Build 0)  -->
<!DOCTYPE svg PUBLIC "-//W3C//DTD SVG 1.1//EN" "http://www.w3.org/Graphics/SVG/1.1/DTD/svg11.dtd">
<svg version="1.1" id="Layer_1" xmlns="http://www.w3.org/2000/svg" xmlns:xlink="http://www.w3.org/1999/xlink" x="0px" y="0px"
	 viewBox="0 0 6 6" enable-background="new 0 0 6 6" xml:space="preserve">
<path opacity="0.5" fill="#FFFFFF" d="M3,0C1.3,0,0,1.3,0,3s1.3,3,3,3s3-1.3,3-3S4.7,0,3,0z M3,5.2c-1.2,0-2.2-1-2.2-2.2
	c0-1.2,1-2.2,2.2-2.2c1.2,0,2.2,1,2.2,2.2C5.2,4.2,4.2,5.2,3,5.2z"/>
<circle fill="#FFFFFF" cx="3" cy="3" r="1.2"/>
<path d="M3,0.8c-1.2,0-2.2,1-2.2,2.2c0,1.2,1,2.2,2.2,2.2c1.2,0,2.2-1,2.2-2.2C5.2,1.8,4.2,0.8,3,0.8z M3,4.2C2.3,4.2,1.8,3.7,1.8,3
	S2.3,1.8,3,1.8S4.2,2.3,4.2,3S3.7,4.2,3,4.2z"/>
</svg>
