<?xml version="1.0" encoding="utf-8"?>
<!-- Generator: Adobe Illustrator 17.1.0, SVG Export Plug-In . SVG Version: 6.00 Build 0)  -->
<!DOCTYPE svg PUBLIC "-//W3C//DTD SVG 1.1//EN" "http://www.w3.org/Graphics/SVG/1.1/DTD/svg11.dtd">
<svg version="1.1" id="Layer_1" xmlns="http://www.w3.org/2000/svg" xmlns:xlink="http://www.w3.org/1999/xlink" x="0px" y="0px"
	 viewBox="0 0 8 8" enable-background="new 0 0 8 8" xml:space="preserve">
<g opacity="0.5">
	<path fill="#FFFFFF" d="M4,1c1.7,0,3,1.3,3,3S5.7,7,4,7S1,5.7,1,4S2.3,1,4,1 M4,0C1.8,0,0,1.8,0,4s1.8,4,4,4s4-1.8,4-4S6.2,0,4,0
		L4,0z"/>
</g>
<g>
	<path d="M4,2c1.1,0,2,0.9,2,2S5.1,6,4,6S2,5.1,2,4S2.9,2,4,2 M4,1C2.3,1,1,2.3,1,4s1.3,3,3,3s3-1.3,3-3S5.7,1,4,1L4,1z"/>
</g>
</svg>
